# xmcd
#
# Track frame offsets: 
#        150
#        13137
#        34882
#        49847
#        62525
#        80507
#        107875
#        120902
#        144625
#        169572
#
# Disc length: 2490 seconds
#
# Revision: 3
# Processed by: cddbd v1.5.2PL0 Copyright (c) Steve Scherf et al.
# Submitted via: ExactAudioCopy v1.0b6
#
DISCID=7f09b80a
DTITLE=Kevin Ayers - Joy of a Toy {BGOCD78}
DYEAR=1969
DGENRE=Psychedelic
TTITLE0=Joy of a Toy Continued
TTITLE1=Town Feeling
TTITLE2=The Clarietta Rag
TTITLE3=Girl on a Swing
TTITLE4=Song for Insane Times
TTITLE5=Stop This Train (Again Doing It)
TTITLE6=Elanor's Cake (Which Ate Her)
TTITLE7=Lady Rachel
TTITLE8=Oleh Oleh Bandu Bandong
TTITLE9=All This Crazy Gift of Time
EXTD=
EXTT0=
EXTT1=
EXTT2=
EXTT3=
EXTT4=
EXTT5=
EXTT6=
EXTT7=
EXTT8=
EXTT9=
PLAYORDER=
